# xmcd
#
# Track frame offsets:
#	150
#	11828
#	23810
#	41074
#	52632
#	73794
#	85530
#	106290
#	123491
#	149717
#	165437
#	178916
#	190574
#	212048
#	234992
#
# Disc length: 3389 seconds
#
# Revision: 1
# Processed by: cddbd v1.5.2PL0 Copyright (c) Steve Scherf et al.
# Submitted via: audiograbber 1.83.01
#
DISCID=c60d3b0f
DTITLE=Chris Ruest - Too Many Problems
DYEAR=2010
DGENRE=Blues
TTITLE0=Geronimo Rock
TTITLE1=Some Other Guy
TTITLE2=Ice Queen
TTITLE3=Thinkin' and Drinkin'
TTITLE4=Pleadin' With My Baby
TTITLE5=Baby I'll Be Your Dog
TTITLE6=Sugar Mama
TTITLE7=Tell Me How You Like It
TTITLE8=Just Like A Puppet
TTITLE9=My Baby Loves Me
TTITLE10=Too Many Problems
TTITLE11=The Shark
TTITLE12=King Bee
TTITLE13=All Your Love
TTITLE14=If I Did You Like You Done Me
EXTD=
EXTT0=
EXTT1=
EXTT2=
EXTT3=
EXTT4=
EXTT5=
EXTT6=
EXTT7=
EXTT8=
EXTT9=
EXTT10=
EXTT11=
EXTT12=
EXTT13=
EXTT14=
PLAYORDER=
